# xmcd CD database file
#
# Track frame offsets:
#	150
#	24212
#	49272
#	66637
#	83596
#	104452
#	127810
#	158615
#	193385
#	218753
#	243030
#	268828
#
# Disc length: 4128 seconds
#
# Revision: 1
# Processed by: cddbd v1.5.1PL0 Copyright (c) Steve Scherf et al.
# Submitted via: CDex 1.51
#
DISCID=a1101e0c
DTITLE=Sac à Pulses (www.sacapulses.com) - Passport to Paradise
DYEAR=2002
DGENRE=Jazz
TTITLE0=Riverboat Shuffle
TTITLE1=Night Train
TTITLE2=Egyptian Fantasy
TTITLE3=Moulin à Café
TTITLE4=When My Dream Boat Comes Home
TTITLE5=Viper Mad (Pleasure Mad)
TTITLE6=Aunt Hagar's Children Blues
TTITLE7=There'll Be Some Changes Made
TTITLE8=Passport to Paradise
TTITLE9=Sidewalk Blues
TTITLE10=Georgia Cabin
TTITLE11=Dans Les Rues d'Antibes
EXTD=YEAR: 2002
EXTT0=
EXTT1=
EXTT2=
EXTT3=
EXTT4=
EXTT5=
EXTT6=
EXTT7=
EXTT8=
EXTT9=
EXTT10=
EXTT11=
PLAYORDER=
